<svg width="9" height="5" viewBox="0 0 9 5" fill="none" xmlns="http://www.w3.org/2000/svg">
<path d="M8.99979 0.589978C9.00879 0.282214 8.72967 0.0326745 8.36953 0.0243565C8.17145 0.0243565 7.98238 0.0909003 7.86534 0.223988L4.50701 3.59277L1.14871 0.223987C0.94163 -0.0172337 0.536481 -0.0754595 0.257371 0.107536C-0.0217381 0.290531 -0.0847845 0.631568 0.122296 0.881107C0.140304 0.906061 0.158318 0.922697 0.185327 0.947651L4.02084 4.80719C4.25493 5.04009 4.65109 5.06505 4.92119 4.86541C4.9482 4.84878 4.9752 4.82383 4.99321 4.80719L8.83773 0.947651C8.93677 0.839518 8.99979 0.714748 8.99979 0.589978Z" fill="#B5B5B5"/>
</svg>
