<svg width="24" height="24" viewBox="0 0 24 24" fill="none" xmlns="http://www.w3.org/2000/svg">
<path d="M0 21.1651V9.42185C0 5.79016 2.9552 2.83496 6.58689 2.83496H17.4115C21.044 2.83496 24 5.79016 24 9.42185V11.4474C24 15.0791 21.0448 18.0342 17.4131 18.0342H6.73959L0 21.1651ZM6.58689 4.30346C3.76461 4.30346 1.4685 6.59957 1.4685 9.42185V18.8634L6.41598 16.565H17.4131C20.2354 16.565 22.5315 14.2688 22.5315 11.4466V9.42105C22.5315 6.59878 20.2346 4.30267 17.4115 4.30267L6.58689 4.30346ZM7.07111 9.31029C7.84255 9.31029 8.46761 9.93535 8.46761 10.7068C8.46761 11.4782 7.84255 12.1033 7.07111 12.1033C6.29967 12.1033 5.67461 11.4782 5.67461 10.7068C5.67461 9.93535 6.29967 9.31029 7.07111 9.31029ZM16.9281 9.31029C17.6995 9.31029 18.3246 9.93535 18.3246 10.7068C18.3246 11.4782 17.6995 12.1033 16.9281 12.1033C16.1567 12.1033 15.5316 11.4782 15.5316 10.7068C15.5316 9.93535 16.1567 9.31029 16.9281 9.31029ZM11.9988 9.31029C12.7703 9.31029 13.3953 9.93535 13.3953 10.7068C13.3953 11.4782 12.7703 12.1033 11.9988 12.1033C11.2274 12.1033 10.6023 11.4782 10.6023 10.7068C10.6023 9.93535 11.2274 9.31029 11.9988 9.31029Z" fill="white"/>
</svg>
