<svg width="18" height="18" viewBox="0 0 18 18" fill="none" xmlns="http://www.w3.org/2000/svg">
<path d="M14 0.25H6.08C4.56 0.25 3.33 1.48 3.33 3V3.25H3C1.48 3.25 0.25 4.48 0.25 6V15C0.25 16.52 1.48 17.75 3 17.75H12C13.25 17.75 14.3 16.9 14.63 15.75H15C16.52 15.75 17.75 14.52 17.75 13V4C17.75 1.93 16.07 0.25 14 0.25ZM12 16.25H3C2.31 16.25 1.75 15.69 1.75 15V6C1.75 5.31 2.31 4.75 3 4.75H12C12.69 4.75 13.25 5.31 13.25 6V15C13.25 15.69 12.69 16.25 12 16.25ZM16.25 13C16.25 13.69 15.69 14.25 15 14.25H14.75V6C14.75 4.48 13.52 3.25 12 3.25H4.83V3C4.83 2.31 5.39 1.75 6.08 1.75H14C15.24 1.75 16.25 2.76 16.25 4V13Z" fill="white"/>
</svg>
