<svg width="60" height="60" viewBox="0 0 60 60" fill="none" xmlns="http://www.w3.org/2000/svg">
<path d="M8.78662 0.00463867H1.75853C0.786235 0.00463867 0 0.79058 0 1.76251V8.90797C0 9.8799 0.786235 10.6658 1.75853 10.6658C2.73082 10.6658 3.51705 9.8799 3.51705 8.90797V3.52038H8.79263C9.76492 3.52038 10.5512 2.73443 10.5512 1.76251C10.5512 0.79058 9.76492 0.00463867 8.79263 0.00463867H8.78662Z" fill="#D5BA98"/>
<path d="M58.2409 0.00463867H51.2068C50.2345 0.00463867 49.4482 0.79058 49.4482 1.76251C49.4482 2.73443 50.2345 3.52038 51.2068 3.52038H56.4823V8.90797C56.4823 9.8799 57.2686 10.6658 58.2409 10.6658C59.2132 10.6658 59.9994 9.8799 59.9994 8.90797V1.76251C59.9994 0.79058 59.2132 0.00463867 58.2409 0.00463867Z" fill="#D5BA98"/>
<path d="M8.78662 56.4663H3.51705V51.0787C3.51705 50.1067 2.73082 49.3208 1.75853 49.3208C0.786235 49.3208 0 50.1067 0 51.0787V58.2241C0 59.1961 0.786235 59.982 1.75853 59.982H8.79263C9.76492 59.982 10.5512 59.1961 10.5512 58.2241C10.5512 57.2522 9.76492 56.4663 8.79263 56.4663H8.78662Z" fill="#D5BA98"/>
<path d="M58.2409 49.3208C57.2686 49.3208 56.4823 50.1067 56.4823 51.0787V56.4663H51.2068C50.2345 56.4663 49.4482 57.2522 49.4482 58.2241C49.4482 59.1961 50.2345 59.982 51.2068 59.982H58.2409C59.2132 59.982 59.9994 59.1961 59.9994 58.2241V51.0787C59.9994 50.1067 59.2132 49.3208 58.2409 49.3208Z" fill="#D5BA98"/>
<path d="M55.3664 14.4214L30.8791 0.238482C30.3329 -0.079494 29.6607 -0.079494 29.1146 0.238482L4.62724 14.4214C4.08708 14.7334 3.75098 15.3154 3.75098 15.9393C3.75098 15.9393 3.75098 15.9453 3.75098 15.9513V44.0652C3.75098 44.6952 4.09308 45.2831 4.64524 45.5951L29.1206 59.766C29.3846 59.916 29.6967 60 30.0028 60C30.3089 60 30.633 59.91 30.8851 59.766L55.3484 45.5951C55.3484 45.5951 55.3544 45.5951 55.3604 45.5891C55.9246 45.1811 56.2307 44.8391 56.2427 44.0892C56.2427 44.0832 56.2427 44.0772 56.2427 44.0712V15.9513C56.2427 15.9513 56.2427 15.9453 56.2427 15.9393C56.2427 15.3154 55.9066 14.7334 55.3664 14.4214ZM28.2443 55.1944L9.03856 44.0712L23.845 35.5818C24.6852 35.1019 24.9793 34.0279 24.4932 33.182C24.013 32.3421 22.9387 32.0481 22.0925 32.5341L7.26203 41.0294V18.9751L28.2383 31.0162V55.1884L28.2443 55.1944ZM30.0028 27.9744L9.03856 15.9333L30.0028 3.79022L50.9671 15.9333L30.0028 27.9744ZM52.7376 41.0294L37.9072 32.5341C37.0669 32.0541 35.9926 32.3421 35.5065 33.182C35.0263 34.0219 35.3144 35.0959 36.1547 35.5818L50.9611 44.0712L31.7553 55.1944V31.0222L52.7316 18.9811V41.0354L52.7376 41.0294Z" fill="#005450"/>
</svg>
