<svg width="20" height="16" viewBox="0 0 20 16" fill="none" xmlns="http://www.w3.org/2000/svg">
<path d="M18.6174 9.39618H2.1077C1.3426 9.39618 0.722656 8.77126 0.722656 8.00002C0.722656 7.22879 1.3426 6.60387 2.1077 6.60387H18.6174C19.3825 6.60387 20.0024 7.22879 20.0024 8.00002C20.0024 8.77126 19.3825 9.39618 18.6174 9.39618Z" fill="white"/>
<path d="M8.44822 16C8.11138 16 7.77343 15.8766 7.50695 15.6275L0.443248 9.02367C0.158484 8.75729 -0.00273496 8.38256 3.51183e-05 7.99052C0.0028052 7.59904 0.168456 7.22598 0.457098 6.96351L7.7147 0.359677C8.28257 -0.156901 9.15847 -0.111666 9.67093 0.460759C10.1834 1.03318 10.1385 1.91611 9.57065 2.43269L3.43659 8.01397L9.3906 13.5802C9.95126 14.1046 9.9845 14.9881 9.46428 15.5532C9.19115 15.8498 8.82052 16 8.44822 16Z" fill="white"/>
</svg>
