<svg width="24" height="22" viewBox="0 0 24 22" fill="none" xmlns="http://www.w3.org/2000/svg">
<path fill-rule="evenodd" clip-rule="evenodd" d="M1.25211e-07 11C1.20633e-07 10.6161 0.137297 10.2322 0.411884 9.93931L8.84936 0.939343C9.39855 0.353553 10.289 0.353552 10.8382 0.939343C11.3873 1.52513 11.3873 2.47487 10.8382 3.06067L4.80127 9.5L22.56 9.5C23.3553 9.5 24 10.1716 24 11C24 11.8284 23.3553 12.5 22.56 12.5L4.80125 12.5L10.8382 18.9393C11.3873 19.5251 11.3873 20.4749 10.8382 21.0607C10.289 21.6464 9.39855 21.6464 8.84936 21.0607L0.411884 12.0607C0.137293 11.7678 1.29789e-07 11.3839 1.25211e-07 11Z" fill="#D5BA98"/>
</svg>
