<svg width="180" height="350" viewBox="0 0 180 350" fill="none" xmlns="http://www.w3.org/2000/svg">
<g opacity="0.2" clip-path="url(#clip0_140_467)">
<path d="M111.034 11.457C111.229 13.3541 114.374 30.4676 115.483 32.223H120.241L121.008 14.9439C121.008 14.9439 115.159 14.5057 114.855 14.9439C114.646 15.2431 117.607 31.5096 117.607 32.223C117.607 37.9943 117.652 273.159 117.652 273.159C117.652 273.741 117.19 274.214 116.61 274.233C115.512 274.268 113.909 274.358 113.663 273.725C113.551 273.434 113.487 265.247 113.487 264.948C113.487 264.229 119.509 264.141 119.514 264.774L119.522 273.308C119.528 273.942 120.043 274.452 120.677 274.452C120.677 274.452 133.351 274.789 133.351 277.958V344.64C133.351 345.768 132.291 346.599 131.198 346.321C128.732 345.693 123.917 344.563 115.672 344.873C102.92 345.353 100.436 346.807 100.436 347.395C100.436 349.548 127.353 351.205 131.919 346.975C134.345 344.728 123.156 343.08 115.547 343.187C109.113 343.277 104.892 343.566 101.622 344.485C100.625 344.766 99.6367 344.015 99.6367 342.981V277.955C99.6367 274.281 110.051 273.987 110.051 273.987C110.211 277.356 102.175 276.48 102.175 279.376V338.11C102.175 338.612 102.634 338.994 103.126 338.895C104.462 338.634 104.74 338.236 106.933 338.423C107.401 338.463 107.799 338.094 107.799 337.626V312.543" stroke="#E0E0E0" stroke-linecap="round" stroke-linejoin="round"/>
<path d="M75.1101 10.8828C75.1101 10.8828 78.9975 23.398 80.1035 25.1534H84.8619L85.6287 13.2982C85.6287 13.2982 79.7803 12.86 79.4757 13.2982C79.2673 13.5975 82.2115 24.4374 82.2115 25.1534C82.2115 25.5595 82.2329 112.062 82.2196 123.771C82.2196 124.353 81.7573 124.826 81.1776 124.845C80.0795 124.879 78.4765 124.97 78.2307 124.337C78.1185 124.046 78.0543 115.859 78.0543 115.56C78.0543 114.841 84.0764 114.753 84.0817 115.386L84.0898 123.92C84.0951 124.553 84.6107 125.064 85.2439 125.064C85.2439 125.064 97.9186 125.4 97.9186 128.569V195.252C97.9186 196.379 96.8579 197.21 95.7652 196.932C93.2992 196.305 88.4847 195.174 80.2398 195.484C67.4877 195.965 65.0029 197.419 65.0029 198.007C65.0029 200.16 91.9206 201.817 96.4866 197.587C98.9125 195.34 87.7233 193.691 80.1142 193.798C73.6807 193.889 69.4594 194.178 66.1892 195.097C65.1926 195.377 64.2041 194.627 64.2041 193.593V128.567C64.2041 124.893 74.6185 124.599 74.6185 124.599C74.7788 127.968 66.7422 127.092 66.7422 129.988V188.722C66.7422 189.224 67.2018 189.606 67.6934 189.507C69.0292 189.245 71.5407 188.847 73.7342 189.034C74.2017 189.074 74.5998 188.706 74.5998 188.238V146.033" stroke="#E0E0E0" stroke-linecap="round" stroke-linejoin="round"/>
<path d="M35.3359 218.468V271.289C35.3359 271.756 34.9351 272.125 34.4702 272.085C32.2768 271.895 31.7638 272.296 30.4279 272.558C29.9337 272.654 29.4768 272.275 29.4768 271.772V213.039C29.4768 210.145 37.5133 211.019 37.353 207.649C37.353 207.649 26.9387 207.943 26.9387 211.617V276.643C26.9387 277.677 27.9272 278.428 28.9237 278.147C32.1939 277.228 36.4179 276.94 42.8488 276.849C50.4605 276.742 61.6471 278.391 59.2211 280.638C54.6551 284.867 27.7375 283.211 27.7375 281.057C27.7375 280.467 30.2222 279.013 42.9744 278.535C51.2193 278.225 56.0311 279.355 58.4998 279.983C59.5925 280.261 60.6532 279.433 60.6532 278.302V211.62C60.6532 208.451 47.9785 208.114 47.9785 208.114C47.3453 208.114 46.8297 207.604 46.8243 206.971L46.8163 198.437C46.811 197.803 40.7889 197.892 40.7889 198.61C40.7889 198.907 40.853 207.096 40.9652 207.387C41.211 208.021 42.8141 207.93 43.9121 207.895C44.4946 207.876 44.9541 207.404 44.9568 206.821C44.9701 194.226 44.9862 34.4703 44.9862 29.7731C44.9862 29.1906 42.0286 15.8819 42.2343 15.6387C42.5389 15.2807 48.3873 15.6387 48.3873 15.6387L47.6205 29.7731H42.8621C42.3198 28.9822 40.5858 21.915 39.7496 20.1008C38.7878 18.0167 39.1992 16.8304 34.4168 16.7395C23.3666 16.5285 5.70644 19.4836 6.19002 20.3172C6.80452 21.378 14.3254 27.1653 49.4239 27.1653C129.824 27.1653 149.114 25.848 157.292 20.8917V1.62194C157.292 1.62194 153.143 2.94987 153.143 8.68109C153.143 8.76125 153.196 18.1984 153.143 18.2812C151.393 18.2812 151.056 10.8346 85.2357 10.8346C19.4151 10.8346 0.400391 16.5311 0.400391 16.5311V0.400879H489.599" stroke="#E0E0E0" stroke-linecap="round" stroke-linejoin="round"/>
</g>
<defs>
<clipPath id="clip0_140_467">
<rect width="180" height="350" fill="white" transform="matrix(-1 0 0 1 180 0)"/>
</clipPath>
</defs>
</svg>
