<svg width="200" height="350" viewBox="0 0 200 350" fill="none" xmlns="http://www.w3.org/2000/svg">
<g clip-path="url(#clip0_140_302)">
<path d="M88.9657 11.457C88.7707 13.3541 85.626 30.4676 84.5173 32.223H79.7589L78.9921 14.9439C78.9921 14.9439 84.8405 14.5057 85.1451 14.9439C85.3535 15.2431 82.3932 31.5096 82.3932 32.223C82.3932 37.9943 82.3478 273.159 82.3478 273.159C82.3478 273.741 82.81 274.214 83.3898 274.233C84.4879 274.268 86.0909 274.358 86.3367 273.725C86.4489 273.434 86.5131 265.247 86.5131 264.948C86.5131 264.229 80.491 264.141 80.4856 264.774L80.4776 273.308C80.4723 273.942 79.9566 274.452 79.3234 274.452C79.3234 274.452 66.6488 274.789 66.6488 277.958V344.64C66.6488 345.768 67.7094 346.599 68.8022 346.321C71.2682 345.693 76.0826 344.563 84.3276 344.873C97.0797 345.353 99.5644 346.807 99.5644 347.395C99.5644 349.548 72.6468 351.205 68.0808 346.975C65.6549 344.728 76.8441 343.08 84.4531 343.187C90.8867 343.277 95.108 343.566 98.3782 344.485C99.3747 344.766 100.363 344.015 100.363 342.981V277.955C100.363 274.281 89.9489 273.987 89.9489 273.987C89.7886 277.356 97.8251 276.48 97.8251 279.376V338.11C97.8251 338.612 97.3656 338.994 96.874 338.895C95.5381 338.634 95.2603 338.236 93.0668 338.423C92.5992 338.463 92.2012 338.094 92.2012 337.626V312.543" stroke="white" stroke-opacity="0.2" stroke-linecap="round" stroke-linejoin="round"/>
<path d="M124.89 10.8826C124.89 10.8826 121.003 23.3977 119.896 25.1532H115.138L114.371 13.298C114.371 13.298 120.22 12.8598 120.524 13.298C120.733 13.5972 117.788 24.4371 117.788 25.1532C117.788 25.5593 117.767 112.062 117.78 123.77C117.78 124.353 118.243 124.826 118.822 124.844C119.921 124.879 121.524 124.97 121.769 124.337C121.882 124.045 121.946 115.859 121.946 115.56C121.946 114.841 115.924 114.753 115.918 115.386L115.91 123.92C115.905 124.553 115.389 125.063 114.756 125.063C114.756 125.063 102.081 125.4 102.081 128.569V195.252C102.081 196.379 103.142 197.21 104.235 196.932C106.701 196.304 111.515 195.174 119.76 195.484C132.512 195.965 134.997 197.418 134.997 198.006C134.997 200.16 108.079 201.816 103.513 197.587C101.087 195.34 112.277 193.691 119.886 193.798C126.319 193.889 130.541 194.177 133.811 195.097C134.807 195.377 135.796 194.626 135.796 193.592V128.566C135.796 124.892 125.382 124.599 125.382 124.599C125.221 127.968 133.258 127.091 133.258 129.988V188.721C133.258 189.224 132.798 189.606 132.307 189.507C130.971 189.245 128.459 188.847 126.266 189.034C125.798 189.074 125.4 188.705 125.4 188.238V146.033" stroke="white" stroke-opacity="0.2" stroke-linecap="round" stroke-linejoin="round"/>
<path d="M164.664 218.468V271.289C164.664 271.756 165.065 272.125 165.53 272.085C167.723 271.895 168.236 272.296 169.572 272.558C170.066 272.654 170.523 272.275 170.523 271.772V213.039C170.523 210.145 162.487 211.019 162.647 207.649C162.647 207.649 173.061 207.943 173.061 211.617V276.643C173.061 277.677 172.073 278.428 171.076 278.147C167.806 277.228 163.582 276.94 157.151 276.849C149.539 276.742 138.353 278.391 140.779 280.638C145.345 284.867 172.263 283.211 172.263 281.057C172.263 280.467 169.778 279.013 157.026 278.535C148.781 278.225 143.969 279.355 141.5 279.983C140.408 280.261 139.347 279.433 139.347 278.302V211.62C139.347 208.451 152.022 208.114 152.022 208.114C152.655 208.114 153.17 207.604 153.176 206.971L153.184 198.437C153.189 197.803 159.211 197.892 159.211 198.61C159.211 198.907 159.147 207.096 159.035 207.387C158.789 208.021 157.186 207.93 156.088 207.895C155.505 207.876 155.046 207.404 155.043 206.821C155.03 194.226 155.014 34.4703 155.014 29.7731C155.014 29.1906 157.971 15.8819 157.766 15.6387C157.461 15.2807 151.613 15.6387 151.613 15.6387L152.38 29.7731H157.138C157.68 28.9822 159.414 21.915 160.25 20.1008C161.212 18.0167 160.801 16.8304 165.583 16.7395C176.633 16.5285 194.294 19.4836 193.81 20.3172C193.195 21.378 185.675 27.1653 150.576 27.1653C70.1758 27.1653 50.886 25.848 42.7078 20.8917V1.62194C42.7078 1.62194 46.857 2.94987 46.857 8.68109C46.857 8.76125 46.8036 18.1984 46.857 18.2812C48.607 18.2812 48.9436 10.8346 114.764 10.8346C180.585 10.8346 199.6 16.5311 199.6 16.5311V0.400879H-289.599" stroke="white" stroke-opacity="0.2" stroke-linecap="round" stroke-linejoin="round"/>
</g>
<defs>
<clipPath id="clip0_140_302">
<rect width="200" height="350" fill="white"/>
</clipPath>
</defs>
</svg>
