<svg width="24" height="22" viewBox="0 0 24 22" fill="none" xmlns="http://www.w3.org/2000/svg">
<path d="M0 21.2162C0 21.6491 0.358125 22 0.8 22H5.6C6.36917 22 7.05458 21.6432 7.49417 21.09C9.44417 21.6936 11.4683 22 13.5158 22H20C21.3233 22 22.4 20.9451 22.4 19.6485C22.4 19.3425 22.3394 19.0502 22.2304 18.7817C23.2488 18.5098 24 17.596 24 16.5131C24 15.9113 23.7677 15.3618 23.3869 14.9454C23.7679 14.5289 24 13.9794 24 13.3777C24 12.7759 23.7677 12.2264 23.3869 11.81C23.7679 11.3936 24 10.844 24 10.2423C24 8.94567 22.9233 7.89074 21.6 7.89074H17.221C17.2831 7.74662 17.3473 7.60047 17.4127 7.45186C17.8981 6.34896 18.4 5.20851 18.4 3.9715C18.4 1.80489 16.6115 0 14.4 0C14.0188 0 13.6904 0.263732 13.6156 0.63014L13.2071 2.63161C12.6704 5.26035 12.0777 5.55797 9.8725 6.66516C9.28958 6.95767 8.60479 7.30163 7.80562 7.74805C7.43771 6.91093 6.58771 6.32304 5.6 6.32304H0.8C0.358125 6.32304 0 6.67393 0 7.10689V21.2162ZM10.6019 8.06037C11.796 7.46084 12.6585 7.02789 13.334 6.29487C14.0246 5.54511 14.4425 4.57285 14.776 2.93902L15.0375 1.65751C16.0408 1.94533 16.8 2.8886 16.8 3.9715C16.8 4.88476 16.3646 5.87417 15.9433 6.83111C15.7906 7.17833 15.6348 7.53331 15.496 7.89074H14.4C13.9581 7.89074 13.6 8.24163 13.6 8.67458C13.6 9.10754 13.9581 9.45843 14.4 9.45843H21.6C22.041 9.45843 22.4 9.81014 22.4 10.2423C22.4 10.6744 22.041 11.0261 21.6 11.0261H20C19.5581 11.0261 19.2 11.377 19.2 11.81C19.2 12.2429 19.5581 12.5938 20 12.5938H21.6C22.041 12.5938 22.4 12.9455 22.4 13.3777C22.4 13.8098 22.041 14.1615 21.6 14.1615H20C19.5581 14.1615 19.2 14.5124 19.2 14.9454C19.2 15.3783 19.5581 15.7292 20 15.7292H21.6C22.041 15.7292 22.4 16.0809 22.4 16.5131C22.4 16.9452 22.041 17.2969 21.6 17.2969H20C19.5581 17.2969 19.2 17.6478 19.2 18.0808C19.2 18.5137 19.5581 18.8646 20 18.8646C20.441 18.8646 20.8 19.2163 20.8 19.6485C20.8 20.0806 20.441 20.4323 20 20.4323H13.5158C11.6406 20.4323 9.78667 20.1531 8 19.6027V9.4517C9.03146 8.84911 9.89417 8.41575 10.6019 8.06037ZM1.6 7.89074H5.6C6.04104 7.89074 6.4 8.24245 6.4 8.67458V19.6485C6.4 20.0806 6.04104 20.4323 5.6 20.4323H1.6V7.89074Z" fill="white"/>
<path d="M4.80117 18.0808C4.80117 18.5137 4.44305 18.8646 4.00117 18.8646C3.5593 18.8646 3.20117 18.5137 3.20117 18.0808C3.20117 17.6478 3.5593 17.2969 4.00117 17.2969C4.44305 17.2969 4.80117 17.6478 4.80117 18.0808Z" fill="white"/>
</svg>
