<svg width="939" height="530" viewBox="0 0 939 530" fill="none" xmlns="http://www.w3.org/2000/svg">
<g clip-path="url(#clip0_166_1848)">
<path d="M666.585 202.378C666.545 202.382 666.505 202.388 666.468 202.392C663.733 202.748 661.707 205.108 661.747 207.862C661.872 216.586 662.201 242.774 661.705 243.241C660.782 244.109 653.231 242.758 652.718 243.794C652.299 244.641 651.922 260.995 652.814 261.591C654.123 262.463 670.322 262.047 671.593 262.365C673.29 262.79 670.639 267.206 665.943 267.206C661.247 267.206 659.246 261.133 660.682 260.4C662.085 259.684 678.511 260.9 679.424 259.568C680.335 258.237 679.862 244.825 679.424 243.794C678.984 242.758 672.035 243.813 671.206 243.409C670.37 243.001 671.206 206.865 671.206 205.069C671.206 204.357 670.48 203.787 669.605 203.358C667.75 202.448 666.585 200.552 666.585 198.487V72.5327C666.585 72.5327 656.665 93.0266 631.149 86.7823C606.892 80.846 598.859 55.5293 598.859 55.5293V147.388C598.859 149.453 600.024 151.349 601.879 152.258C602.755 152.687 603.48 153.257 603.48 153.969C603.48 155.764 602.644 191.902 603.48 192.31C604.31 192.713 611.259 191.658 611.698 192.695C612.136 193.723 612.609 207.138 611.698 208.468C610.786 209.802 594.357 208.585 592.956 209.301C591.52 210.035 593.613 216.107 598.217 216.107C602.821 216.107 605.564 211.688 603.868 211.265C602.596 210.947 586.397 211.365 585.088 210.491C584.196 209.896 584.573 193.542 584.992 192.695C585.505 191.658 593.056 193.009 593.98 192.141C594.476 191.675 594.144 165.484 594.021 156.763C593.982 154.009 596.008 151.649 598.742 151.293C598.782 151.288 598.819 151.282 598.859 151.278" stroke="white" stroke-opacity="0.2" stroke-width="1.5" stroke-linecap="round" stroke-linejoin="round"/>
<path d="M631.51 171.613C631.471 171.618 631.431 171.624 631.394 171.628C628.659 171.984 626.633 174.344 626.673 177.098C626.798 185.821 627.127 212.01 626.631 212.476C625.708 213.344 618.156 211.994 617.644 213.03C617.225 213.877 616.847 230.231 617.739 230.826C619.048 231.701 635.248 231.282 636.519 231.601C638.218 232.025 635.564 236.442 630.869 236.442C626.173 236.442 624.172 230.369 625.608 229.636C627.01 228.92 643.437 230.135 644.35 228.803C645.261 227.473 644.788 214.06 644.35 213.03C643.91 211.994 636.961 213.049 636.131 212.645C635.296 212.237 636.131 176.101 636.131 174.305C636.131 173.593 635.406 173.023 634.531 172.594C632.676 171.684 631.51 169.788 631.51 167.723V63.4738C631.51 63.4738 647.172 95.7363 687.989 102.93C720.331 108.629 742.746 92.1645 742.746 92.1645L388.202 0.728516L425.084 1.32381L750.737 88.3721L752.201 347.575L759.542 350.837V84.7192L449.254 0.915846H477.663L768.998 80.3294V347.573L776.27 350.835V77.2717L506.518 0.728516H536.047L785.727 72.8861V385.661L792.999 388.925V69.8264L564.177 0.915846H595.381L802.455 65.4387V446.417L809.728 449.68V62.379L620.635 0.728516H651.92L819.188 57.9933V453.925L826.46 457.188V54.9336L677.42 0.915846H703.146L835.917 50.548V461.43L843.189 464.692V47.4904L719.698 0.915846H743.634L852.648 43.1006V468.938L859.92 472.2V40.0429L763.541 1.14064L786.3 0.728516L869.377 35.6573V476.444L876.649 479.707V32.5976L799.221 0.915846H822.206L886.109 28.212V483.949L893.382 487.213V25.1543L837.474 0.915846H857.667L902.838 20.7645V491.457L910.11 494.721V17.7048L874.045 0.915846H891.128L919.567 13.3192V498.917L924.586 501.038V11.4584L901.112 0.917927H922.587L938.271 8.36535V506.579L931.491 510.315L805.959 453.958L755.819 472.081C754.391 472.595 753.441 473.948 753.441 475.463V490.435C753.441 490.772 753.168 491.045 752.828 491.045H750.279C749.941 491.045 749.668 490.772 749.668 490.435V480.802C749.668 480.538 749.839 480.303 750.091 480.222C754.368 478.844 789.708 467.414 792.08 464.831C794.604 462.082 795.952 400.123 792.08 395.652C788.818 391.885 784.324 392.324 779.736 393.011C775.149 393.698 731.337 404.384 729.502 406.944C727.668 409.504 742.075 403.439 744.141 411.228C746.204 419.017 746.665 481.094 740.929 482.696C735.195 484.299 727.624 485.904 726.937 480.636C726.249 475.368 725.713 419.168 725.713 411.38C725.713 403.591 727.702 402.827 761.803 394.047C781.318 389.023 775.872 390.357 775.795 369.765C775.741 355.335 773.5 356.479 731.295 356.708C689.088 356.937 653.398 351.068 646.897 355.564C639.347 360.784 639.564 408.068 640.865 409.469C642.386 411.109 695.513 416.211 705.126 416.685C722.783 417.56 720.59 422.11 701.881 420.232C639.623 413.99 637.092 414.596 636.886 409.352C635.948 385.632 637.194 387.306 636.459 386.96C635.396 386.461 619.188 389.87 610.105 391.161C581.22 395.263 598.147 386.56 597.872 406.834C597.647 423.333 595.037 422.803 609.273 418.902C640.481 410.349 640.329 413.549 608.024 422.911C593.995 426.976 592.484 426.456 591.652 430.165C590.658 434.6 591.041 456.127 593.436 457.271C598.234 459.565 696.57 471.523 707.821 472.543C721.507 473.784 722.457 470.408 722.812 472.76C723.039 474.277 723.964 480.902 722.282 482.509C721.355 483.396 719.444 484.074 718.068 483.92C716.692 483.768 696.047 481.069 694.213 480.867C692.379 480.663 692.987 510.453 693.548 511.343C693.819 511.774 695.972 511.554 697.196 511.531C697.696 511.52 698.1 511.123 698.119 510.623C698.292 505.898 699.069 483.922 698.615 483.922C698.104 483.922 609.471 471.671 608.345 471.896C607.772 472.01 607.968 497.754 608.487 498.18C609.137 498.715 611.991 498.69 612.474 498.276C612.958 497.864 613.698 470.254 612.933 470.102C612.168 469.95 588.084 467.277 586.402 465.901C584.72 464.527 584.403 406.923 585.714 400.007C586.333 396.737 587.321 394.193 588.78 393.835C594.016 392.549 591.412 428.774 573.967 433.137C571.518 433.749 565.402 434.96 562.322 435.56C561.523 435.716 560.733 435.179 560.635 434.371C559.787 427.349 535.943 430.071 526.094 435.362C510.66 443.655 533.229 451.774 543.878 444.185C552.659 437.929 550.554 400.737 550.21 394.033C549.866 387.329 550.106 381.14 553.378 380.281C556.648 379.421 551.139 378.734 553.722 377.015C556.304 375.296 551.656 375.125 553.549 373.749C555.441 372.373 558.197 359.997 562.501 352.949C566.805 345.901 590.272 307.738 589.011 306.535C587.506 305.101 565.83 343.666 564.108 344.526C562.386 345.385 577.306 310.833 576.789 309.114C576.272 307.395 556.992 348.824 556.477 355.012C555.96 361.2 551.658 370.469 550.798 370.862C549.937 371.258 551.112 362.892 552.346 357.849C556.421 341.204 556.481 339.799 557.04 329.656C557.597 319.513 558.974 310.575 557.684 312.38C556.394 314.184 551.852 333.519 550.454 344.068C549.12 354.123 549.191 360.399 548.503 360.055C547.815 359.712 548.561 342.979 546.493 325.961C544.023 305.613 539.824 285.084 539.207 287.912C538.963 289.032 543.911 333.64 543.911 336.389C543.911 339.139 545.747 345.901 545.747 349.683C545.747 353.465 540.507 328.782 535.476 317.881C530.094 306.221 519.466 292.381 519.351 293.414C519.237 294.446 531.63 314.615 533.581 321.95C535.532 329.285 541.328 343.439 541.097 345.156C540.868 346.876 523.941 308.77 522.678 308.77C521.415 308.77 538.4 346.647 539.434 350.085C540.468 353.524 509.941 309.803 508.678 309.803C507.415 309.803 523.253 331.119 526.351 336.391C529.45 341.664 545.837 362.636 546.25 364.928C546.662 367.22 548.04 372.378 547.35 371.805C546.662 371.233 530.25 346.02 527.956 343.383C525.661 340.748 509.134 318.628 507.527 317.941C505.92 317.254 521.069 338.914 526.463 346.707C531.857 354.5 546.316 372.378 546.892 374.211C547.465 376.045 543.677 375.042 546.921 377.448C547.944 378.208 543.163 379.04 546.662 380.628C548.021 381.244 547.667 381.89 547.579 382.92C547.494 383.952 546.077 416.04 544.528 423.088C542.979 430.136 542.118 433.918 540.914 434.777C539.709 435.637 541.429 430.096 539.651 431.568C538.087 432.864 539.221 426.984 537.356 428.587C536.389 429.42 537.041 419.735 538.59 413.03C540.138 406.326 541.883 381.929 541.087 383.032C539.538 385.18 534.632 414.75 534.632 417.326C534.632 419.903 533.777 401.512 533.777 390.251C533.777 378.99 532.049 365.153 532.049 364.122C532.049 363.092 531.015 382.689 531.188 393.003C531.326 401.253 533.168 418.444 533.168 419.991C533.168 421.537 528.864 398.933 527.833 390.509C526.799 382.085 525.509 361.2 524.906 361.802C524.304 362.403 524.131 382.431 526.628 397.128C527.993 405.173 528.058 408.595 527.672 406.78C526.928 403.275 523.649 393.465 520.552 385.128C517.388 376.615 510.018 362.403 509.586 362.919C509.157 363.436 514.036 376.547 518.02 386.042C519.956 390.655 529.31 416.544 529.629 417.857C530.317 420.694 515.781 395.153 512.081 389.651C507.725 383.178 501.495 375.383 501.064 375.899C500.634 376.416 525.509 415.695 525.938 416.727C526.369 417.759 503.388 389.995 503.905 391.887C504.422 393.777 510.101 403.148 517.044 410.653C526 420.336 527.405 420.767 530.544 425.151C533.683 429.534 522.666 420.338 516.9 416.556C511.133 412.774 483.676 400.14 483.074 400.741C482.472 401.343 506.743 415.18 512.423 418.103C518.103 421.025 530.646 429.055 532.132 429.965C535.088 431.77 529.635 431.312 532.162 432.688C534.686 434.063 530.813 433.805 533.195 434.979C535.576 436.153 537.183 439.128 536.895 440.759C536.607 442.393 537.852 447.711 548.611 444.704C556.773 442.42 560.016 438.18 561.321 439.032C562.163 439.581 562.528 467.55 558.305 472.839C554.704 477.349 543.473 480.02 536.061 480.211C527.983 480.419 520.342 478.046 519.251 446.885C519.206 445.58 518.001 444.629 516.721 444.889C377.068 473.403 0.730469 549.272 0.730469 549.272" stroke="white" stroke-opacity="0.2" stroke-width="1.5" stroke-linecap="round" stroke-linejoin="round"/>
</g>
<defs>
<clipPath id="clip0_166_1848">
<rect width="939" height="530" fill="white"/>
</clipPath>
</defs>
</svg>
