<svg width="24" height="22" viewBox="0 0 24 22" fill="none" xmlns="http://www.w3.org/2000/svg">
<path fill-rule="evenodd" clip-rule="evenodd" d="M24 11C24 11.3839 23.8627 11.7678 23.5881 12.0607L15.1506 21.0607C14.6015 21.6464 13.711 21.6464 13.1618 21.0607C12.6127 20.4749 12.6127 19.5251 13.1618 18.9393L19.1987 12.5L1.44 12.5C0.644736 12.5 -4.22759e-07 11.8284 -4.5897e-07 11C-4.9518e-07 10.1716 0.644736 9.5 1.44 9.5L19.1987 9.5L13.1618 3.06068C12.6127 2.47488 12.6127 1.52508 13.1618 0.939277C13.711 0.353576 14.6014 0.353576 15.1506 0.939277L23.5881 9.93929C23.8627 10.2322 24 10.6161 24 11Z" fill="#D5BA98"/>
</svg>
