<svg width="20" height="20" viewBox="0 0 20 20" fill="none" xmlns="http://www.w3.org/2000/svg">
<path d="M19.6481 18.2341C18.4937 17.0847 17.3437 15.9315 16.1893 14.7828C16.1244 14.7185 16.0344 14.6785 15.9519 14.6242C17.5299 12.5777 18.1945 10.3369 17.8766 7.84711C17.5567 5.34667 16.3611 3.32134 14.3497 1.80297C10.7047 -0.949074 5.65739 -0.5058 2.44908 2.82625C-0.648658 6.04404 -0.828563 11.1317 2.02805 14.6548C4.99024 18.3084 10.5785 19.1843 14.6008 15.9809C14.6564 16.0508 14.6989 16.1176 14.7538 16.1725C15.8551 17.2751 16.9577 18.3758 18.0602 19.4771C18.1539 19.5708 18.2445 19.6688 18.3451 19.7543C18.9304 20.2519 19.8174 19.956 19.9767 19.2055C20.0579 18.8228 19.9217 18.5063 19.6481 18.2341ZM8.96689 15.9653C5.09206 15.9553 1.97308 12.818 1.98995 8.94905C2.00681 5.0832 5.13766 1.98278 9.00562 2.00213C12.8692 2.02149 15.9757 5.14189 15.9607 8.98775C15.9451 12.8567 12.8192 15.9759 8.96689 15.9653Z" fill="white" fill-opacity="0.6"/>
</svg>
