<svg width="20" height="18" viewBox="0 0 20 18" fill="none" xmlns="http://www.w3.org/2000/svg">
<path fill-rule="evenodd" clip-rule="evenodd" d="M20 9C20 9.31991 19.8856 9.63982 19.6568 9.88391L12.6255 17.3839C12.1679 17.872 11.4258 17.872 10.9682 17.3839C10.5106 16.8957 10.5106 16.1043 10.9682 15.6161L15.9989 10.25L1.2 10.25C0.537279 10.25 -3.52299e-07 9.69033 -3.82475e-07 9C-4.1265e-07 8.30967 0.537279 7.75 1.2 7.75L15.999 7.75L10.9682 2.3839C10.5106 1.89573 10.5106 1.10423 10.9682 0.616062C11.4258 0.127979 12.1679 0.127979 12.6255 0.616062L19.6568 8.11607C19.8856 8.36016 20 8.68008 20 9Z" fill="white"/>
</svg>
